<?xml version="1.0" encoding="UTF-8"?>
<svg id="Layer_1" xmlns="http://www.w3.org/2000/svg" version="1.1" viewBox="0 0 21.15 29.04">
  <!-- Generator: Adobe Illustrator 30.0.0, SVG Export Plug-In . SVG Version: 2.1.1 Build 123)  -->
  <defs>
    <style>
      .st0 {
        fill: #fff;
      }
    </style>
  </defs>
  <path class="st0" d="M0,34.08V-.37M4.33,0H.06v19.24c.32,5.09,4.44,9.34,9.54,9.78l4.68.03v-4.27c-2.07-.1-4.27.32-6.22-.53-2.14-.93-3.6-3.06-3.72-5.4V0ZM21.14,29.04v-10.36c-.06-5.33-3.98-10.01-9.21-10.99-1.73-.32-3.5-.15-5.25-.19v4.33h3.68c3.46.27,6.26,3.14,6.45,6.61v10.6h4.33ZM14.29,18.27c0-2.12-1.72-3.84-3.84-3.84s-3.84,1.72-3.84,3.84,1.72,3.84,3.84,3.84,3.84-1.72,3.84-3.84Z"/>
  <g>
    <path d="M4.33,0v18.84c.12,2.33,1.59,4.47,3.72,5.4,1.95.85,4.15.43,6.22.53v4.27l-4.68-.03C4.5,28.58.38,24.33.06,19.24V0h4.27Z"/>
    <path d="M21.14,29.04h-4.33v-10.6c-.19-3.46-3-6.34-6.45-6.6h-3.68v-4.33c1.75.04,3.52-.13,5.25.19,5.23.97,9.15,5.66,9.21,10.99v10.36Z"/>
    <circle cx="10.45" cy="18.27" r="3.84"/>
  </g>
</svg>